<svg id="Layer_3" enable-background="new 0 0 60 60" height="512" viewBox="0 0 60 60" width="512" xmlns="http://www.w3.org/2000/svg"><path d="m36.78 52.34c4.79 0 8.69-3.9 8.7-8.7 0-.49-.04-.96-.12-1.43-.69-4.21-4.29-7.26-8.57-7.26-3.88 0-7.2 2.5-8.3 6.09-2.75-1.12-5.21-2.75-7.33-4.86-2.12-2.13-3.75-4.59-4.86-7.32 3.59-1.11 6.09-4.43 6.1-8.3-.01-4.28-3.07-7.89-7.26-8.58-.48-.08-.95-.12-1.44-.12-4.8.01-8.7 3.91-8.7 8.7 0 8.49 3.31 16.47 9.31 22.47 6 6.01 13.98 9.31 22.47 9.31z"/><path d="m41.45 15.56h-1.5c-.22 0-.4.18-.4.41v3.67c0 .23.18.41.4.41h1.5c.22 0 .4-.18.4-.41v-3.67c0-.23-.18-.41-.4-.41z"/><path d="m51.29 7.66h-21.19c-2.04 0-3.7 1.67-3.7 3.71v19.08c0 .38.21.72.56.89.14.07.29.11.44.11.21 0 .43-.07.61-.21l4.28-3.29h19c2.05 0 3.71-1.67 3.71-3.71v-12.87c0-2.04-1.66-3.71-3.71-3.71zm-18.84 9.15h2.25c1.19 0 2.16.96 2.16 2.16v.91c0 1.2-.97 2.17-2.16 2.17h-2.25c-1.2 0-2.17-.97-2.17-2.17 0-.55.45-1 1-1 .56 0 1 .45 1 1 0 .09.08.17.17.17h2.25c.09 0 .16-.08.16-.17v-.91c0-.09-.07-.16-.16-.16h-2.25c-1.2 0-2.17-.97-2.17-2.17v-.91c0-1.2.97-2.17 2.17-2.17h2.25c1.19 0 2.16.97 2.16 2.17 0 .55-.44 1-1 1-.55 0-1-.45-1-1 0-.09-.07-.17-.16-.17h-2.25c-.09 0-.17.08-.17.17v.91c0 .09.08.17.17.17zm11.4 2.83c0 1.33-1.08 2.41-2.4 2.41h-1.5c-1.32 0-2.4-1.08-2.4-2.41v-3.67c0-1.33 1.08-2.41 2.4-2.41h1.5c1.32 0 2.4 1.08 2.4 2.41zm2.85-2.83h2.25c1.19 0 2.16.96 2.16 2.16v.91c0 1.2-.97 2.17-2.16 2.17h-2.25c-1.2 0-2.17-.97-2.17-2.17 0-.55.45-1 1-1 .56 0 1 .45 1 1 0 .09.08.17.17.17h2.25c.09 0 .16-.08.16-.17v-.91c0-.09-.07-.16-.16-.16h-2.25c-1.2 0-2.17-.97-2.17-2.17v-.91c0-1.2.97-2.17 2.17-2.17h2.25c1.19 0 2.16.97 2.16 2.17 0 .55-.44 1-1 1-.55 0-1-.45-1-1 0-.09-.07-.17-.16-.17h-2.25c-.09 0-.17.08-.17.17v.91c0 .09.08.17.17.17z"/></svg>